<?xml version="1.0" encoding="UTF-8" standalone="no"?>
<svg
   xmlns:dc="http://purl.org/dc/elements/1.1/"
   xmlns:cc="http://creativecommons.org/ns#"
   xmlns:rdf="http://www.w3.org/1999/02/22-rdf-syntax-ns#"
   xmlns:svg="http://www.w3.org/2000/svg"
   xmlns="http://www.w3.org/2000/svg"
   xmlns:sodipodi="http://sodipodi.sourceforge.net/DTD/sodipodi-0.dtd"
   xmlns:inkscape="http://www.inkscape.org/namespaces/inkscape"
   height="100%"
   style="fill-rule:evenodd;clip-rule:evenodd;stroke-linejoin:round;stroke-miterlimit:2;"
   version="1.1"
   viewBox="0 0 512 512"
   width="100%"
   xml:space="preserve"
   id="svg4"
   sodipodi:docname="icon-facebook.svg"
   inkscape:version="0.92.5 (2060ec1f9f, 2020-04-08)"><metadata
     id="metadata10"><rdf:RDF><cc:Work
         rdf:about=""><dc:format>image/svg+xml</dc:format><dc:type
           rdf:resource="http://purl.org/dc/dcmitype/StillImage" /></cc:Work></rdf:RDF></metadata><defs
     id="defs8" /><sodipodi:namedview
     pagecolor="#ffffff"
     bordercolor="#666666"
     borderopacity="1"
     objecttolerance="10"
     gridtolerance="10"
     guidetolerance="10"
     inkscape:pageopacity="0"
     inkscape:pageshadow="2"
     inkscape:window-width="1920"
     inkscape:window-height="1016"
     id="namedview6"
     showgrid="false"
     inkscape:zoom="0.4609375"
     inkscape:cx="-122.57627"
     inkscape:cy="245.15255"
     inkscape:window-x="0"
     inkscape:window-y="27"
     inkscape:window-maximized="1"
     inkscape:current-layer="svg4" /><path
     d="M 410.90794,51.000001 C 438.5549,51.000001 461,73.445899 461,101.09208 V 410.90793 C 461,438.5541 438.5541,461 410.90794,461 H 325.65035 V 306.5173 h 53.33203 l 10.14751,-66.16136 h -63.47954 v -42.93548 c 0,-18.10005 8.86706,-35.74368 37.30039,-35.74368 h 28.86176 v -56.32695 c 0,0 -26.19356,-4.46995 -51.23559,-4.46995 -52.2814,0 -86.45234,31.6861 -86.45234,89.05007 v 50.42599 h -58.11509 v 66.16136 h 58.11509 V 461 H 101.09208 C 73.445902,461 51.000004,438.5541 51.000004,410.90793 V 101.09208 c 0,-27.646181 22.445097,-50.092079 50.092076,-50.092079 z"
     style="fill:#1777f2;stroke-width:0.99999994"
     id="path2"
     inkscape:connector-curvature="0" /></svg>