<?xml version="1.0" encoding="UTF-8" standalone="no"?>
<svg
   xmlns:dc="http://purl.org/dc/elements/1.1/"
   xmlns:cc="http://creativecommons.org/ns#"
   xmlns:rdf="http://www.w3.org/1999/02/22-rdf-syntax-ns#"
   xmlns:svg="http://www.w3.org/2000/svg"
   xmlns="http://www.w3.org/2000/svg"
   xmlns:sodipodi="http://sodipodi.sourceforge.net/DTD/sodipodi-0.dtd"
   xmlns:inkscape="http://www.inkscape.org/namespaces/inkscape"
   height="100%"
   style="fill-rule:evenodd;clip-rule:evenodd;stroke-linejoin:round;stroke-miterlimit:2;"
   version="1.1"
   viewBox="0 0 512 512"
   width="100%"
   xml:space="preserve"
   id="svg39"
   sodipodi:docname="icon-instagram.svg"
   inkscape:version="0.92.5 (2060ec1f9f, 2020-04-08)"><metadata
     id="metadata43"><rdf:RDF><cc:Work
         rdf:about=""><dc:format>image/svg+xml</dc:format><dc:type
           rdf:resource="http://purl.org/dc/dcmitype/StillImage" /></cc:Work></rdf:RDF></metadata><sodipodi:namedview
     pagecolor="#ffffff"
     bordercolor="#666666"
     borderopacity="1"
     objecttolerance="10"
     gridtolerance="10"
     guidetolerance="10"
     inkscape:pageopacity="0"
     inkscape:pageshadow="2"
     inkscape:window-width="1920"
     inkscape:window-height="1016"
     id="namedview41"
     showgrid="false"
     inkscape:zoom="0.4609375"
     inkscape:cx="-126.91525"
     inkscape:cy="251.66102"
     inkscape:window-x="0"
     inkscape:window-y="27"
     inkscape:window-maximized="1"
     inkscape:current-layer="svg39" /><g
     id="g8"
     transform="matrix(0.80078438,0,0,0.80078438,51,51)"
     style="stroke-width:1.2487756"><path
       d="M 256,0 C 186.474,0 177.756,0.295 150.451,1.541 123.203,2.784 104.593,7.111 88.309,13.44 71.475,19.982 57.198,28.736 42.967,42.968 28.735,57.199 19.981,71.476 13.439,88.31 7.11,104.593 2.783,123.203 1.54,150.451 0.294,177.756 0,186.474 0,256 c 0,69.524 0.294,78.242 1.54,105.547 1.243,27.248 5.57,45.858 11.899,62.141 6.542,16.834 15.296,31.111 29.528,45.344 14.231,14.231 28.508,22.985 45.342,29.527 16.284,6.328 34.894,10.656 62.142,11.899 27.305,1.245 36.023,1.54 105.549,1.54 69.524,0 78.242,-0.295 105.547,-1.54 27.248,-1.243 45.858,-5.571 62.141,-11.899 16.834,-6.542 31.111,-15.296 45.344,-29.527 14.231,-14.233 22.985,-28.51 29.527,-45.344 6.328,-16.283 10.656,-34.893 11.899,-62.141 1.245,-27.305 1.54,-36.023 1.54,-105.547 0,-69.526 -0.295,-78.244 -1.54,-105.549 C 509.215,123.203 504.887,104.593 498.559,88.31 492.017,71.476 483.263,57.199 469.032,42.968 454.799,28.736 440.522,19.982 423.688,13.44 407.405,7.111 388.795,2.784 361.547,1.541 334.242,0.295 325.524,0 256,0 Z m 0,46.127 c 68.354,0 76.451,0.26 103.445,1.492 24.959,1.139 38.514,5.309 47.535,8.814 11.949,4.644 20.477,10.192 29.435,19.15 8.959,8.958 14.506,17.487 19.15,29.435 3.506,9.021 7.676,22.576 8.815,47.535 1.231,26.995 1.492,35.092 1.492,103.447 0,68.354 -0.261,76.451 -1.492,103.445 -1.139,24.959 -5.309,38.514 -8.815,47.535 -4.644,11.949 -10.191,20.477 -19.15,29.435 -8.958,8.959 -17.486,14.506 -29.435,19.15 -9.021,3.506 -22.576,7.676 -47.535,8.814 -26.99,1.232 -35.086,1.493 -103.445,1.493 -68.361,0 -76.455,-0.261 -103.447,-1.493 -24.959,-1.138 -38.514,-5.308 -47.535,-8.814 C 93.069,450.921 84.541,445.374 75.582,436.415 66.624,427.457 61.076,418.929 56.433,406.98 52.927,397.959 48.757,384.404 47.618,359.445 46.386,332.451 46.126,324.354 46.126,256 c 0,-68.355 0.26,-76.452 1.492,-103.447 1.139,-24.959 5.309,-38.514 8.815,-47.535 4.643,-11.948 10.191,-20.477 19.149,-29.435 8.959,-8.958 17.487,-14.506 29.436,-19.15 9.021,-3.505 22.576,-7.675 47.535,-8.814 26.995,-1.232 35.092,-1.492 103.447,-1.492 z"
       style="fill:url(#_Linear1);fill-rule:nonzero;stroke-width:1.66502762"
       id="path2"
       inkscape:connector-curvature="0" /><path
       d="m 256,341.332 c -47.129,0 -85.334,-38.205 -85.334,-85.332 0,-47.129 38.205,-85.334 85.334,-85.334 47.127,0 85.332,38.205 85.332,85.334 0,47.127 -38.205,85.332 -85.332,85.332 z m 0,-216.792 c -72.604,0 -131.46,58.856 -131.46,131.46 0,72.602 58.856,131.458 131.46,131.458 72.602,0 131.458,-58.856 131.458,-131.458 0,-72.604 -58.856,-131.46 -131.458,-131.46 z"
       style="fill:url(#_Linear2);fill-rule:nonzero;stroke-width:1.66502762"
       id="path4"
       inkscape:connector-curvature="0" /><path
       d="m 423.372,119.346 c 0,16.967 -13.754,30.72 -30.72,30.72 -16.966,0 -30.72,-13.753 -30.72,-30.72 0,-16.966 13.754,-30.719 30.72,-30.719 16.966,0 30.72,13.753 30.72,30.719 z"
       style="fill:url(#_Linear3);fill-rule:nonzero;stroke-width:1.66502762"
       id="path6"
       inkscape:connector-curvature="0" /></g><defs
     id="defs37"><linearGradient
       gradientTransform="matrix(-149.618,494.3,-494.3,-149.618,300.81,-27.1283)"
       gradientUnits="userSpaceOnUse"
       id="_Linear1"
       x1="0"
       x2="1"
       y1="0"
       y2="0"><stop
         offset="0"
         style="stop-color:#515bd4;stop-opacity:1"
         id="stop10" /><stop
         offset="0.26"
         style="stop-color:#9510b8;stop-opacity:1"
         id="stop12" /><stop
         offset="0.66"
         style="stop-color:#e51804;stop-opacity:1"
         id="stop14" /><stop
         offset="1"
         style="stop-color:#feda77;stop-opacity:1"
         id="stop16" /></linearGradient><linearGradient
       gradientTransform="matrix(-149.618,494.3,-494.3,-149.618,300.81,-27.1283)"
       gradientUnits="userSpaceOnUse"
       id="_Linear2"
       x1="0"
       x2="1"
       y1="0"
       y2="0"><stop
         offset="0"
         style="stop-color:#515bd4;stop-opacity:1"
         id="stop19" /><stop
         offset="0.26"
         style="stop-color:#9510b8;stop-opacity:1"
         id="stop21" /><stop
         offset="0.66"
         style="stop-color:#e51804;stop-opacity:1"
         id="stop23" /><stop
         offset="1"
         style="stop-color:#ffbf00;stop-opacity:1"
         id="stop25" /></linearGradient><linearGradient
       gradientTransform="matrix(-149.618,494.3,-494.3,-149.618,300.81,-27.1283)"
       gradientUnits="userSpaceOnUse"
       id="_Linear3"
       x1="0"
       x2="1"
       y1="0"
       y2="0"><stop
         offset="0"
         style="stop-color:#515bd4;stop-opacity:1"
         id="stop28" /><stop
         offset="0.26"
         style="stop-color:#9510b8;stop-opacity:1"
         id="stop30" /><stop
         offset="0.66"
         style="stop-color:#e51804;stop-opacity:1"
         id="stop32" /><stop
         offset="1"
         style="stop-color:#ffbf00;stop-opacity:1"
         id="stop34" /></linearGradient></defs></svg>