<?xml version="1.0" encoding="UTF-8" standalone="no"?>
<svg
   xmlns:dc="http://purl.org/dc/elements/1.1/"
   xmlns:cc="http://creativecommons.org/ns#"
   xmlns:rdf="http://www.w3.org/1999/02/22-rdf-syntax-ns#"
   xmlns:svg="http://www.w3.org/2000/svg"
   xmlns="http://www.w3.org/2000/svg"
   xmlns:sodipodi="http://sodipodi.sourceforge.net/DTD/sodipodi-0.dtd"
   xmlns:inkscape="http://www.inkscape.org/namespaces/inkscape"
   viewBox="0 0 64 64"
   version="1.1"
   id="svg25"
   sodipodi:docname="icon-contact.svg"
   inkscape:version="0.92.5 (2060ec1f9f, 2020-04-08)">
  <metadata
     id="metadata29">
    <rdf:RDF>
      <cc:Work
         rdf:about="">
        <dc:format>image/svg+xml</dc:format>
        <dc:type
           rdf:resource="http://purl.org/dc/dcmitype/StillImage" />
      </cc:Work>
    </rdf:RDF>
  </metadata>
  <sodipodi:namedview
     pagecolor="#ffffff"
     bordercolor="#666666"
     borderopacity="1"
     objecttolerance="10"
     gridtolerance="10"
     guidetolerance="10"
     inkscape:pageopacity="0"
     inkscape:pageshadow="2"
     inkscape:window-width="1920"
     inkscape:window-height="1016"
     id="namedview27"
     showgrid="false"
     inkscape:zoom="3.6875"
     inkscape:cx="32.542373"
     inkscape:cy="31.186441"
     inkscape:window-x="0"
     inkscape:window-y="27"
     inkscape:window-maximized="1"
     inkscape:current-layer="svg25" />
  <defs
     id="defs4">
    <style
       id="style2">.cls-1{fill:#a2d0ff;}.cls-2{fill:#8bc4ff;}.cls-3{fill:#e8f3ff;}.cls-4{fill:#2e58ff;}</style>
  </defs>
  <title
     id="title6" />
  <g
     id="Email"
     transform="matrix(0.8125,0,0,0.8125,5.9942794,6)"
     style="stroke-width:1.23076928">
    <path
       class="cls-1"
       d="m 62,22 v 36 a 4,4 0 0 1 -4,4 H 6 A 4,4 0 0 1 2,58 V 23 c 12.59,9.8 7.06,5.49 24.68,19.19 a 8.57,8.57 0 0 0 10.69,-0.12 z"
       id="path8"
       inkscape:connector-curvature="0"
       style="fill:#a2d0ff;stroke-width:1.51479292" />
    <polygon
       class="cls-2"
       points="52,12 62,22 52,30.15 "
       id="polygon10"
       style="fill:#8bc4ff;stroke-width:1.51479292" />
    <path
       class="cls-3"
       d="M 52,2 V 30.15 L 37.37,42.07 A 8.57,8.57 0 0 1 26.68,42.19 L 12,30.78 V 2 Z"
       id="path12"
       inkscape:connector-curvature="0"
       style="fill:#e8f3ff;stroke-width:1.51479292" />
    <polygon
       class="cls-2"
       points="12,30.78 2,23 2,22 12,12 "
       id="polygon14"
       style="fill:#8bc4ff;stroke-width:1.51479292" />
    <path
       class="cls-4"
       d="M 64,21.91 C 63.95,20.8 64.13,21.3 54,11.17 V 2 A 2,2 0 0 0 52,0 H 12 a 2,2 0 0 0 -2,2 v 9.17 L 0.59,20.59 C -0.25,21.42 0,18.72 0,58 a 6,6 0 0 0 6,6 h 52 a 6,6 0 0 0 6,-6 C 64,10.56 64.11,24.51 64,21.91 Z M 60,57.17 47.41,44.59 a 2,2 0 0 0 -2.82,2.82 L 57.17,60 H 6.83 L 19.41,47.41 A 2,2 0 0 0 16.59,44.59 L 4,57.17 V 27.09 L 25.45,43.77 A 10.58,10.58 0 0 0 38.63,43.62 L 60,26.21 Z M 59,21.85 54,25.94 V 16.83 Z M 14,4 H 50 V 29.2 L 36.1,40.52 a 6.57,6.57 0 0 1 -8.19,0.09 L 14,29.8 Z M 10,26.69 4.45,22.37 10,16.83 Z"
       id="path16"
       inkscape:connector-curvature="0"
       style="fill:#2e58ff;stroke-width:1.51479292" />
    <path
       class="cls-4"
       d="M 20,12 H 45 A 2,2 0 0 0 45,8 H 20 a 2,2 0 0 0 0,4 z"
       id="path18"
       inkscape:connector-curvature="0"
       style="fill:#2e58ff;stroke-width:1.51479292" />
    <path
       class="cls-4"
       d="m 20,20 h 25 a 2,2 0 0 0 0,-4 H 20 a 2,2 0 0 0 0,4 z"
       id="path20"
       inkscape:connector-curvature="0"
       style="fill:#2e58ff;stroke-width:1.51479292" />
    <path
       class="cls-4"
       d="m 20,28 h 25 a 2,2 0 0 0 0,-4 H 20 a 2,2 0 0 0 0,4 z"
       id="path22"
       inkscape:connector-curvature="0"
       style="fill:#2e58ff;stroke-width:1.51479292" />
  </g>
</svg>
