<?xml version="1.0" encoding="UTF-8" standalone="no"?>
<svg
   xmlns:dc="http://purl.org/dc/elements/1.1/"
   xmlns:cc="http://creativecommons.org/ns#"
   xmlns:rdf="http://www.w3.org/1999/02/22-rdf-syntax-ns#"
   xmlns:svg="http://www.w3.org/2000/svg"
   xmlns="http://www.w3.org/2000/svg"
   xmlns:sodipodi="http://sodipodi.sourceforge.net/DTD/sodipodi-0.dtd"
   xmlns:inkscape="http://www.inkscape.org/namespaces/inkscape"
   height="100%"
   style="fill-rule:evenodd;clip-rule:evenodd;stroke-linejoin:round;stroke-miterlimit:2;"
   version="1.1"
   viewBox="0 0 512 512"
   width="100%"
   xml:space="preserve"
   id="svg6"
   sodipodi:docname="icon-twitter.svg"
   inkscape:version="0.92.5 (2060ec1f9f, 2020-04-08)"><metadata
     id="metadata12"><rdf:RDF><cc:Work
         rdf:about=""><dc:format>image/svg+xml</dc:format><dc:type
           rdf:resource="http://purl.org/dc/dcmitype/StillImage" /></cc:Work></rdf:RDF></metadata><defs
     id="defs10" /><sodipodi:namedview
     pagecolor="#ffffff"
     bordercolor="#666666"
     borderopacity="1"
     objecttolerance="10"
     gridtolerance="10"
     guidetolerance="10"
     inkscape:pageopacity="0"
     inkscape:pageshadow="2"
     inkscape:window-width="1920"
     inkscape:window-height="1016"
     id="namedview8"
     showgrid="false"
     inkscape:zoom="0.4609375"
     inkscape:cx="-126.91525"
     inkscape:cy="251.66102"
     inkscape:window-x="0"
     inkscape:window-y="27"
     inkscape:window-maximized="1"
     inkscape:current-layer="svg6" /><rect
     height="400"
     style="fill:none;"
     width="400"
     x="56"
     y="56"
     id="rect2" /><path
     d="m 179.937,422.57291 c 154.71733,0 239.34149,-128.18185 239.34149,-239.3415 0,-3.64035 0,-7.26469 -0.24584,-10.87301 16.46246,-11.90841 30.67393,-26.6516 41.96735,-43.54168 -15.35178,6.80264 -31.63887,11.26299 -48.31434,13.23452 17.55633,-10.50946 30.70436,-27.052 36.98168,-46.526999 -16.51131,9.797559 -34.57773,16.703499 -53.41451,20.418319 -15.90512,-16.913299 -38.11879,-26.515467 -61.33424,-26.515467 -46.19066,0 -84.19814,38.008287 -84.19814,84.197347 0,6.40785 0.73191,12.79568 2.17973,19.03697 C 185.29983,189.2733 122.2287,157.29811 79.535843,104.77407 57.334984,142.99215 68.822191,192.52047 105.57885,217.06442 92.193796,216.66803 79.096214,213.05651 67.400003,206.53575 v 1.06584 c 0.01121,39.89011 28.385293,74.56154 67.485847,82.45964 -12.38329,3.3769 -25.37916,3.87018 -37.981864,1.44301 10.992324,34.18135 42.690454,57.74273 78.588674,58.41699 -29.78105,23.40443 -66.59056,36.11763 -104.468321,36.08 -6.692929,-0.0128 -13.379452,-0.41801 -20.024335,-1.21399 38.464722,24.68409 83.233206,37.78086 128.936996,37.72"
     style="fill:#1da1f2;fill-rule:nonzero;stroke-width:0.99999994"
     id="path4"
     inkscape:connector-curvature="0" /></svg>